<svg width="20" height="21" viewBox="0 0 20 21" fill="none" xmlns="http://www.w3.org/2000/svg">
<path d="M14.9999 7.49827H14.1666V5.8316C14.1666 3.5316 12.2999 1.66493 9.99992 1.66493C7.69992 1.66493 5.83325 3.5316 5.83325 5.8316V7.49827H4.99992C4.08325 7.49827 3.33325 8.24827 3.33325 9.16493V17.4983C3.33325 18.4149 4.08325 19.1649 4.99992 19.1649H14.9999C15.9166 19.1649 16.6666 18.4149 16.6666 17.4983V9.16493C16.6666 8.24827 15.9166 7.49827 14.9999 7.49827ZM9.99992 14.9983C9.08325 14.9983 8.33325 14.2483 8.33325 13.3316C8.33325 12.4149 9.08325 11.6649 9.99992 11.6649C10.9166 11.6649 11.6666 12.4149 11.6666 13.3316C11.6666 14.2483 10.9166 14.9983 9.99992 14.9983ZM12.5833 7.49827H7.41658V5.8316C7.41658 4.4066 8.57492 3.24827 9.99992 3.24827C11.4249 3.24827 12.5833 4.4066 12.5833 5.8316V7.49827Z" fill="#A5B0C1"/>
</svg>
